<svg xmlns="http://www.w3.org/2000/svg" width="30" height="30" viewBox="0 0 30 30">
    <path data-name="Icon awesome-phone-square-alt" d="M26.786 0H3.214A3.214 3.214 0 0 0 0 3.214v23.572A3.214 3.214 0 0 0 3.214 30h23.572A3.214 3.214 0 0 0 30 26.786V3.214A3.214 3.214 0 0 0 26.786 0zm-1.1 20.583-1 4.353a1 1 0 0 1-.978.779A19.421 19.421 0 0 1 4.286 6.295a1.051 1.051 0 0 1 .779-.978l4.353-1a1.221 1.221 0 0 1 .226-.026 1.09 1.09 0 0 1 .923.609l2.009 4.687a1.2 1.2 0 0 1 .081.4 1.138 1.138 0 0 1-.368.777l-2.538 2.067a15.53 15.53 0 0 0 7.418 7.419l2.076-2.537a1.138 1.138 0 0 1 .777-.368 1.2 1.2 0 0 1 .4.081l4.687 2.009a1.088 1.088 0 0 1 .609.923 1.166 1.166 0 0 1-.026.226z"/>
</svg>
