<svg xmlns="http://www.w3.org/2000/svg" width="30" height="30" viewBox="0 0 30 30">
    <path data-name="Path 157" d="M27.785 0H2.216A2.184 2.184 0 0 0 0 2.149v25.7A2.184 2.184 0 0 0 2.216 30h25.569A2.184 2.184 0 0 0 30 27.85V2.149A2.183 2.183 0 0 0 27.785 0z" style="fill:#040403"/>
    <path data-name="Path 158" d="M200.544 601.155a5.247 5.247 0 0 1-3.292-1.315l.245-1.15.011-.042c.218-1.224.91-3.28 3.036-3.28a2.893 2.893 0 0 1 0 5.786zm0-8.72c-2.717 0-4.823 1.768-5.678 4.674a23.957 23.957 0 0 1-2.876-6.308h-2.923v7.618a2.722 2.722 0 1 1-5.444 0V590.8H180.7v7.618a5.647 5.647 0 1 0 11.293 0v-1.278a18.248 18.248 0 0 0 2.111 3.45l-1.792 8.432h2.988l1.3-6.116a7.193 7.193 0 0 0 3.946 1.187 5.829 5.829 0 0 0 0-11.658z" transform="translate(-178.529 -583.71)" style="fill:#fff"/>
</svg>
