<svg id="Layer_1" data-name="Layer 1" xmlns="http://www.w3.org/2000/svg" viewBox="0 0 260.55 60"><defs><style>.cls-1{fill:#78cfe3;}.cls-2{fill:#0b1717;}.cls-3{font-size:18px;fill:#231f20;font-family:Lato-Black, Lato;letter-spacing:0.2em;}.cls-4{letter-spacing:0.13em;}</style></defs><title>smeet-personal-logo-v2</title><path class="cls-1" d="M193,245.22s-12.91,6.7-9.12,14.91c2.11,4.57,9.4,9.61,27,14.21C210.81,274.35,180.13,260.9,193,245.22Z" transform="translate(-180.31 -245.22)"/><path class="cls-2" d="M201.59,271.53s35.09,3.37-5.67,33.69C195.92,305.22,219.34,281.28,201.59,271.53Z" transform="translate(-180.31 -245.22)"/><path class="cls-2" d="M193,245.22s-17.69,8.44-9.81,28.71C183.14,273.93,172.32,255.39,193,245.22Z" transform="translate(-180.31 -245.22)"/><polygon class="cls-1" points="12.46 0.1 10.05 1.6 10.76 1.12 11.42 0.69 11.71 0.52 12.46 0.1"/><text class="cls-3" transform="translate(51.32 32.17)">SMEET MAK<tspan class="cls-4" x="136.67" y="0">W</tspan><tspan x="158.29" y="0">ANA</tspan></text></svg>