<svg xmlns="http://www.w3.org/2000/svg" width="30" height="30" viewBox="0 0 30 30">
    <path data-name="Icon ionic-logo-linkedin" d="M32.1 4.5H7.063A2.447 2.447 0 0 0 4.5 6.837v25.092A2.64 2.64 0 0 0 7.063 34.5h25.03a2.506 2.506 0 0 0 2.407-2.571V6.837A2.3 2.3 0 0 0 32.1 4.5zM13.8 29.507H9.5V16.144h4.3zm-2-15.395h-.031A2.206 2.206 0 0 1 9.5 11.807 2.22 2.22 0 0 1 11.822 9.5a2.214 2.214 0 0 1 2.3 2.305 2.219 2.219 0 0 1-2.322 2.307zm17.707 15.395h-4.3V22.2c0-1.75-.625-2.946-2.18-2.946a2.352 2.352 0 0 0-2.2 1.586 2.894 2.894 0 0 0-.148 1.055v7.611h-4.3V16.144h4.3V18a4.351 4.351 0 0 1 3.876-2.172c2.821 0 4.954 1.86 4.954 5.869v7.807z" transform="translate(-4.5 -4.5)" style="fill:#040403"/>
</svg>
