<svg xmlns="http://www.w3.org/2000/svg" width="1131.976" height="710" viewBox="0 0 1131.976 710">
    <defs>
        <filter id="boa59io96a" x="801" y="551" width="160" height="159" filterUnits="userSpaceOnUse">
            <feOffset/>
            <feGaussianBlur stdDeviation="15" result="blur"/>
            <feFlood flood-color="#e1e3e4" flood-opacity=".902"/>
            <feComposite operator="in" in2="blur"/>
            <feComposite in="SourceGraphic"/>
        </filter>
        <filter id="mr1ptvkp8b" x="0" y="0" width="159" height="159" filterUnits="userSpaceOnUse">
            <feOffset/>
            <feGaussianBlur stdDeviation="15" result="blur-2"/>
            <feFlood flood-color="#e1e3e4" flood-opacity=".902"/>
            <feComposite operator="in" in2="blur-2"/>
            <feComposite in="SourceGraphic"/>
        </filter>
        <filter id="9k72gk5lkc" x="409" y="287" width="159" height="160" filterUnits="userSpaceOnUse">
            <feOffset/>
            <feGaussianBlur stdDeviation="15" result="blur-3"/>
            <feFlood flood-color="#e1e3e4" flood-opacity=".902"/>
            <feComposite operator="in" in2="blur-3"/>
            <feComposite in="SourceGraphic"/>
        </filter>
    </defs>
    <g data-name="Group 35">
        <path data-name="Path 4" d="M-2624.3 4212.542s153.632-52.437 414.33 272.225 512.957 269.187 651.172 346.456" transform="translate(2689.801 -4131.31)" style="stroke:#fd7050;fill:none;stroke-width:4px"/>
        <g data-name="Group 34">
            <g style="filter:url(#boa59io96a)">
                <ellipse data-name="Ellipse 13" cx="35" cy="34.5" rx="35" ry="34.5" transform="translate(845.999 596)" style="fill:#fff"/>
            </g>
            <path d="M133.839 21.685a5.537 5.537 0 0 0-3.523 3.523.293.293 0 0 1-.558 0 5.537 5.537 0 0 0-3.523-3.523.293.293 0 0 1 0-.558 5.537 5.537 0 0 0 3.523-3.523.293.293 0 0 1 .558 0 5.587 5.587 0 0 0 3.523 3.523.293.293 0 0 1 0 .558zm8 3.584a2.621 2.621 0 0 1-1.66-1.652.138.138 0 0 0-.128-.1.129.129 0 0 0-.128.1 2.588 2.588 0 0 1-1.66 1.652.147.147 0 0 0 0 .272 2.621 2.621 0 0 1 1.66 1.652.136.136 0 0 0 .257 0 2.6 2.6 0 0 1 1.66-1.652.147.147 0 0 0 0-.272zm.438 14.583a4.831 4.831 0 0 1-3.078-3.078.251.251 0 0 0-.483 0 4.831 4.831 0 0 1-3.078 3.078.251.251 0 0 0 0 .483 4.831 4.831 0 0 1 3.078 3.078.251.251 0 0 0 .483 0 4.831 4.831 0 0 1 3.078-3.078.268.268 0 0 0 .189-.241.261.261 0 0 0-.174-.249h-.015zm-19.928-11.233a3.418 3.418 0 0 1-2.173-2.18.179.179 0 0 0-.176-.129.186.186 0 0 0-.174.128 3.452 3.452 0 0 1-2.173 2.18.179.179 0 0 0-.128.174.186.186 0 0 0 .128.174 3.424 3.424 0 0 1 2.173 2.173.179.179 0 0 0 .174.128.186.186 0 0 0 .174-.128 3.424 3.424 0 0 1 2.173-2.173.179.179 0 0 0 .128-.174.193.193 0 0 0-.126-.173zm13.8 2.052L109.8 57.016l-4.2-4.195 26.36-26.353zm-4.187-1.456-4.534 4.519 1.449 1.449 4.527-4.519zm8.457 2.641a1.12 1.12 0 0 0-.324-.785 1.1 1.1 0 0 0-.785-.324 1.12 1.12 0 0 0-.785.324 1.1 1.1 0 0 0-.324.785 1.12 1.12 0 0 0 .324.785 1.105 1.105 0 0 0 1.886-.777zm-7.039 5.032a1.095 1.095 0 1 0 .762.317 1.058 1.058 0 0 0-.777-.309zm-5.953-9.355a1.066 1.066 0 0 0-.641-.973 1.05 1.05 0 0 0-1.373 1.373 1.048 1.048 0 0 0 2.014-.4z" transform="translate(756.971 593.115)" style="stroke-width:.5px;fill:#fd7050;stroke:#fd7050"/>
        </g>
        <g data-name="Group 32">
            <g style="filter:url(#mr1ptvkp8b)">
                <circle data-name="Ellipse 11" cx="34.5" cy="34.5" r="34.5" transform="translate(45 45.001)" style="fill:#fff"/>
            </g>
            <path data-name="Path 5" d="M131.989 149.77S123.75 140 112.533 140s-19.456 9.77-19.456 9.77a1.631 1.631 0 0 0 0 2.025s8.238 9.77 19.456 9.77 19.456-9.77 19.456-9.77a1.631 1.631 0 0 0 0-2.025zm-19.456 9.308a8.3 8.3 0 1 1 8.3-8.3 8.3 8.3 0 0 1-8.3 8.3z" transform="translate(-32.869 -71.23)" style="fill:#fd7050"/>
            <path data-name="Path 6" d="M296.315 220.764a1.763 1.763 0 0 1-1.763-1.764 1.707 1.707 0 0 1 .154-.716 4.806 4.806 0 1 0 2.5 4.219 4.9 4.9 0 0 0-.354-1.817 2.072 2.072 0 0 1-.539.077z" transform="translate(-212.74 -142.948)" style="fill:#fd7050"/>
        </g>
        <g data-name="Group 33">
            <g style="filter:url(#9k72gk5lkc)">
                <ellipse data-name="Ellipse 12" cx="34.5" cy="35" rx="34.5" ry="35" transform="translate(454.003 331.995)" style="fill:#fff"/>
            </g>
            <path d="M176.907 42.689v2.63a.767.767 0 0 1-.762.762 1.6 1.6 0 0 0-1.523.819 3.895 3.895 0 0 1-6.007 0 1.593 1.593 0 0 0-1.416-.819.774.774 0 0 1-.87-.762v-2.63a.808.808 0 0 1-.8-.8v-.812a.808.808 0 0 1 .8-.8H176.9a.808.808 0 0 1 .8.8v.812a.8.8 0 0 1-.8.8zm6.324-18.137a4.416 4.416 0 0 1 2.6-3.672 16.112 16.112 0 0 0-.87-3.442 3.8 3.8 0 0 1-3.938-1.617 4.9 4.9 0 0 1-.489-4.642 13.143 13.143 0 0 0-2.8-1.753 4.076 4.076 0 0 1-2.163 1.789.741.741 0 0 1-.97-.7V8.937a.239.239 0 0 0-.237-.237h-1.459a.239.239 0 0 0-.237.237v6.755a.722.722 0 0 0 .719.719c3.341.446 5.727 3.823 5.332 7.545a6.441 6.441 0 0 1-5.49 5.957s-.56-.072-.56.632v6.6a.672.672 0 0 0 .668.668 10.238 10.238 0 0 0 3.8-.69c.223-.086.438-.187.654-.287a4.75 4.75 0 0 1 1.452-4.391 3.677 3.677 0 0 1 4.168-.546 15.473 15.473 0 0 0 1.574-3.119 4.647 4.647 0 0 1-1.761-4.232zM171.439 8.7a12.615 12.615 0 0 0-7.294 22.779 4.82 4.82 0 0 1 2.019 3.988v2.623a.831.831 0 0 0 .826.826h4.448V8.7z" transform="translate(315.831 338.371)" style="fill:#fd7050"/>
        </g>
    </g>
</svg>
