<svg xmlns="http://www.w3.org/2000/svg" width="48" height="48" viewBox="0 0 48 48">
    <g data-name="Group 187" transform="translate(-308 -1043)">
        <rect data-name="Rectangle 61" width="48" height="48" rx="3" transform="translate(308 1043)" style="opacity:.15;fill:#fff"/>
        <path d="M95.771 67.541a6.486 6.486 0 0 0 1.088-3.653c-.017-.249-.023-.5-.052-.747a13.021 13.021 0 0 0-1.077-3.705 38.066 38.066 0 0 0-3.972-6.809 54.55 54.55 0 0 0-1.911-2.548c-.116-.145-.191-.185-.33 0a59.2 59.2 0 0 0-3.456 4.863 27.851 27.851 0 0 0-3.1 6.34 7.393 7.393 0 0 0 .046 5.124 6.993 6.993 0 0 0 .585 1.135c-5.807.712-9.895 2.391-9.895 4.348 0 2.594 7.162 4.7 16 4.7s16-2.1 16-4.7c0-1.963-4.1-3.642-9.929-4.348zm-11.036-5.425a16.3 16.3 0 0 1 1.21-3.231c.012-.023.035-.046.087-.122a11.156 11.156 0 0 0-.249 2.27 6.715 6.715 0 0 0 1.077 3.532c.139.22.289.44.434.66a.846.846 0 0 1 .081.984.97.97 0 0 1-.99.452 1.781 1.781 0 0 1-1.251-.886 4.665 4.665 0 0 1-.4-3.659zm6.2 8.58a7.122 7.122 0 0 0 3.908-2c1.581.446 2.576 1.094 2.576 1.818 0 1.343-3.456 2.437-7.718 2.437s-7.718-1.088-7.718-2.437c0-.718.984-1.366 2.553-1.812a7.422 7.422 0 0 0 6.4 2zM89.7 75.345c-6.9 0-12.489-1.766-12.489-3.943 0-1.511 2.7-2.825 6.652-3.485q.182.243.382.469c-2.669.521-4.429 1.407-4.429 2.42 0 1.6 4.423 2.9 9.883 2.9s9.883-1.3 9.883-2.9c0-1.013-1.772-1.9-4.452-2.426q.2-.226.382-.469c3.966.66 6.676 1.974 6.676 3.485 0 2.183-5.587 3.949-12.489 3.949z" transform="translate(242.3 1004.045)" style="fill:#fff"/>
    </g>
</svg>
