<svg xmlns="http://www.w3.org/2000/svg" width="48" height="48" viewBox="0 0 48 48">
    <g data-name="Group 187" transform="translate(-308 -1043)">
        <rect data-name="Rectangle 61" width="48" height="48" rx="3" transform="translate(308 1043)" style="opacity:.15;fill:#fff"/>
        <path d="m133.311 103.291-3.2-3.2a1.011 1.011 0 0 0-1.433 1.427l1.475 1.469h-6.942v-5.578a3.207 3.207 0 0 0-3.209-3.209h-13.2a3.207 3.207 0 0 0-3.209 3.209V112.8a1.011 1.011 0 1 0 2.023 0V97.415a1.192 1.192 0 0 1 1.186-1.186H120a1.192 1.192 0 0 1 1.186 1.186V103h-2.36v-1.19a3.207 3.207 0 0 0-3.209-3.209h-4.383a3.217 3.217 0 0 0-3.257 3.209v8.8a3.217 3.217 0 0 0 3.221 3.215H120a3.207 3.207 0 0 0 3.209-3.209v-5.587h6.942l-1.475 1.475a1.009 1.009 0 0 0-.259.975 1.024 1.024 0 0 0 .716.716 1.008 1.008 0 0 0 .975-.265l3.2-3.209a1 1 0 0 0 .3-.716 1.027 1.027 0 0 0-.3-.716zm-12.119 7.315a1.192 1.192 0 0 1-1.186 1.186h-8.8a1.208 1.208 0 0 1-.849-.343 1.2 1.2 0 0 1-.355-.843v-8.8a1.192 1.192 0 0 1 1.186-1.186h4.412a1.192 1.192 0 0 1 1.186 1.186V103h-1.963a2.425 2.425 0 0 0-2.426 2.426v1.559a2.436 2.436 0 0 0 2.432 2.444h1.553a2.425 2.425 0 0 0 1.716-.716 2.45 2.45 0 0 0 .716-1.716v-1.981h2.36zm-4.389-5.587v1.969a.4.4 0 0 1-.12.3.423.423 0 0 1-.3.12h-1.559a.41.41 0 0 1-.409-.409v-1.577a.41.41 0 0 1 .409-.409z" transform="translate(213.4 962.8)" style="fill:#fff"/>
    </g>
</svg>
