<svg xmlns="http://www.w3.org/2000/svg" width="48" height="48" viewBox="0 0 48 48">
    <g data-name="Group 187" transform="translate(-308 -1043)">
        <rect data-name="Rectangle 61" width="48" height="48" rx="3" transform="translate(308 1043)" style="opacity:.15;fill:#fff"/>
        <path d="m121.923 54.9 9.3.149a64.568 64.568 0 0 1-6.61 4.355c-.379.192-.768.4-1.167.634a62.523 62.523 0 0 1-7.666 3.46q-.624.224-1.263.448a68.782 68.782 0 0 1-7.714 2.186 5.389 5.389 0 0 1-1.487.235 45.13 45.13 0 0 0 18.035-9.313zm-16.423 24V67.486a68 68 0 0 0 7.789-1.871V78.9zm16.9-16.83V78.9h-7.815V65.221a61.674 61.674 0 0 0 7.815-3.151zm1.162-.608a60.016 60.016 0 0 0 7.837-4.851V78.9h-7.839z" transform="translate(213.646 1000.1)" style="stroke:#fd856a;stroke-width:.5px;fill:#fff"/>
    </g>
</svg>
