<svg xmlns="http://www.w3.org/2000/svg" width="48" height="48" viewBox="0 0 48 48">
    <g data-name="Group 187" transform="translate(-308 -1043)">
        <rect data-name="Rectangle 61" width="48" height="48" rx="3" transform="translate(308 1043)" style="opacity:.15;fill:#fff"/>
        <path data-name="Path 18" d="M144.692 323.614c.748.252.992-.911 1.325-.785A9.635 9.635 0 0 0 143.9 322c.044.666 0 1.37.792 1.614z" transform="translate(173.351 748.39)" style="fill:#fff"/>
        <path data-name="Path 19" d="M173.126 335.066c-.126.622.992 1.5 1.5.992.289-.252.207-1.5.577-1.407A19.177 19.177 0 0 0 173 333.2c.415.207.207 1.407.126 1.866z" transform="translate(146.406 738.019)" style="fill:#fff"/>
        <path data-name="Path 20" d="M199.4 355.973a1.162 1.162 0 0 0 1.325 1.162c.459-.081.785-1.533 1.244-1.37-.666-.577-1.37-1.2-2.154-1.866.118.378-.415 1.621-.415 2.073z" transform="translate(121.96 718.852)" style="fill:#fff"/>
        <path data-name="Path 21" d="M235.8 380.8c.289.459-.126 1.784.081 2.325.163.415 1.244.748 2.236 0 .37-.252.785-.415 1.162-.622-.415-.126-.911-.289-1.5-.459a7.5 7.5 0 0 1-1.979-1.244z" transform="translate(88.255 693.943)" style="fill:#fff"/>
        <path data-name="Path 22" d="M243.108 157.259s-4.479.874-5.967.911a56.163 56.163 0 0 1-6.471-.748 14.958 14.958 0 0 0-3.48-.163c-2.073.252-7.714 3.154-7.714 3.154-.044 1.036.666 2.406 3.568 2.236 1.37-.081 4.272-2.154 5.39-1.407.044.044 5.76 4.479 10.076 7.507.54-.252 1.081-.5 1.658-.785.955-.5 3.813-.081 4.227-.5.785-.837-.622-7.722-1.288-10.209z" transform="translate(103.372 900.982)" style="fill:#fff"/>
        <path data-name="Path 23" d="M152.757 147.919c-.126-.126-10.283-7.418-10.328-7.463-.748-.622-3.4 1.244-5.553 1.244-2.613 0-3.605-1.7-3.568-2.739 0 0 5.641-2.9 7.714-3.154a13.921 13.921 0 0 1 3.48 0 .51.51 0 0 0-.081-.333c-.5-.785-2.984-1.162-3.65-1.244-1.74-.163-6.552 3.272-8.958 3.48-.748.081-2.947-1.325-2.9-.577.577 8.544-1.91 10.365-1.91 10.365a10.833 10.833 0 0 1 1.37.289 9.782 9.782 0 0 1 2.117.829 21.867 21.867 0 0 1 2.362 1.533c.785.622 2.28 1.947 2.325 1.992a9.1 9.1 0 0 0 3.48 1.7c1.992.666 1.866.622 2.9.622.333 0 1.658 0 1.37-1.244-.126-.5 1.162.785 1.784.829a1.418 1.418 0 0 0 1.325-1.992c-.163-.54 1.866.992 2.073.992a1.519 1.519 0 0 0 1.162-2.488 10.451 10.451 0 0 1-.829-.911 13.977 13.977 0 0 0 3.065.911c.792.133 2.162-1.9 1.251-2.643z" transform="translate(189 922.264)" style="fill:#fff"/>
    </g>
</svg>
