<svg xmlns="http://www.w3.org/2000/svg" width="48" height="48" viewBox="0 0 48 48">
    <g data-name="Group 187" transform="translate(-308 -1043)">
        <rect data-name="Rectangle 61" width="48" height="48" rx="3" transform="translate(308 1043)" style="opacity:.15;fill:#fff"/>
        <path data-name="Path 15" d="M128.872 4.355a12.091 12.091 0 0 0-12.341 12.092c0 .29.012.575.029.859l-3.216 5.544a.9.9 0 0 0-.1.575.861.861 0 0 0 .29.505.851.851 0 0 0 .546.2h2.8v4.888a2.279 2.279 0 0 0 2.281 2.281h2.694a.971.971 0 0 1 .969.969v4.087h13.055a41.68 41.68 0 0 1 .772-6.571 29.268 29.268 0 0 1 2.746-7.808 12.1 12.1 0 0 0-10.525-17.621zm4.377 12.667a.31.31 0 0 1-.308.308h-.993v.993a.308.308 0 0 1-.615 0v-.993h-.993a.308.308 0 0 1 0-.615h.993v-.993a.308.308 0 0 1 .615 0v.993h.993a.306.306 0 0 1 .308.306zm-2.792-6.484a1.605 1.605 0 1 1-1.138.47 1.653 1.653 0 0 1 1.138-.47zm-6.873 6.873a1.605 1.605 0 1 1 .47 1.138 1.638 1.638 0 0 1-.47-1.138zm4.905 4.365h-.989v.993a.308.308 0 0 1-.615 0v-.993h-.993a.308.308 0 0 1 0-.615h.993v-.993a.308.308 0 1 1 .615 0v.993h.993a.31.31 0 0 1 .308.308.3.3 0 0 1-.312.307zm4.928-.8a.972.972 0 0 1-.819-.453l-.035-.064h-2.072a2.537 2.537 0 0 1-2.531-2.531v-2.462a1.6 1.6 0 0 0-.476-1.144 1.622 1.622 0 0 0-1.144-.476h-2.078v.929a.088.088 0 0 1-.052.081.093.093 0 0 1-.087-.012l-1.643-1.382a.085.085 0 0 1 0-.128l1.643-1.382a.08.08 0 0 1 .087-.012.091.091 0 0 1 .052.081v.929h2.078a2.537 2.537 0 0 1 2.531 2.531v2.461a1.625 1.625 0 0 0 1.62 1.625h2.072l.035-.058a.968.968 0 0 1 1.654 1 1 1 0 0 1-.836.459z" transform="translate(205.023 1046.648)" style="fill:#fff"/>
        <path data-name="Path 16" d="M393.893 123.485a.991.991 0 1 0-.7-.29.988.988 0 0 0 .7.29z" transform="translate(-58.413 936.3)" style="fill:#fff"/>
        <path data-name="Path 17" d="M303.193 212.2a1 1 0 0 0-.7.29.988.988 0 0 0-.29.7 1 1 0 0 0 .29.7.988.988 0 0 0 .7.29 1 1 0 0 0 .7-.29.988.988 0 0 0 .29-.7 1 1 0 0 0-.29-.7.988.988 0 0 0-.7-.29z" transform="translate(27.022 850.866)" style="fill:#fff"/>
    </g>
</svg>
