<svg xmlns="http://www.w3.org/2000/svg" width="48" height="48" viewBox="0 0 48 48">
    <g data-name="Group 187" transform="translate(-308 -1043)">
        <rect data-name="Rectangle 61" width="48" height="48" rx="3" transform="translate(308 1043)" style="opacity:.15;fill:#fff"/>
        <path data-name="Path 11" d="M133.477 113.655a.458.458 0 0 0-.455-.455h-3.392a.4.4 0 0 0-.4.4v3.392a1.293 1.293 0 0 1-.37.9 1.263 1.263 0 0 1-.9.37 1.241 1.241 0 0 1-.8-.284 1.306 1.306 0 0 0-1.678.057 1.221 1.221 0 0 0 0 1.778 1.319 1.319 0 0 0 1.678.064 1.291 1.291 0 0 1 .889-.277 1.266 1.266 0 0 1 1.18 1.266v3.392a.389.389 0 0 0 .4.4h3.392a.466.466 0 0 0 .412-.256.46.46 0 0 0-.05-.484 2.037 2.037 0 0 1 2.176-3.236 2.038 2.038 0 0 1 .988 3.228.466.466 0 0 0-.107.3.461.461 0 0 0 .455.455h3.8v-3.785a1.253 1.253 0 0 1 .341-.86 1.268 1.268 0 0 1 1.721-.135 1.306 1.306 0 0 0 1.678-.057 1.221 1.221 0 0 0 0-1.778 1.23 1.23 0 0 0-.91-.334 1.173 1.173 0 0 0-.768.277 1.268 1.268 0 0 1-1.721-.135 1.253 1.253 0 0 1-.341-.86v-3.392a.423.423 0 0 0-.114-.284.392.392 0 0 0-.284-.114h-3.4a.458.458 0 0 0-.455.455.447.447 0 0 0 .1.284 2.033 2.033 0 0 1-1.593 3.321 1.984 1.984 0 0 1-.455-.05 2.028 2.028 0 0 1-1.465-1.316 2.051 2.051 0 0 1 .327-1.941.528.528 0 0 0 .121-.306z" transform="translate(190.9 941.8)" style="fill:#fff"/>
        <path data-name="Path 12" d="M359.852 113.655a.458.458 0 0 0-.455-.455H356a.4.4 0 0 0-.4.4v3.392a.454.454 0 0 0 .455.455.462.462 0 0 0 .284-.1 2.033 2.033 0 0 1 1.429-.441 2.047 2.047 0 0 1 1.351 3.435 2.044 2.044 0 0 1-2.78.2.447.447 0 0 0-.284-.1.459.459 0 0 0-.455.434v3.8h3.783a1.339 1.339 0 0 1 1.195.889 1.274 1.274 0 0 1-.235 1.195 1.2 1.2 0 0 0-.228 1.067 1.219 1.219 0 0 0 .683.811 1.255 1.255 0 0 0 1.06-.021 1.227 1.227 0 0 0 .4-1.87 1.241 1.241 0 0 1-.284-.8 1.293 1.293 0 0 1 .37-.9 1.263 1.263 0 0 1 .9-.37h3.392a.423.423 0 0 0 .284-.114.392.392 0 0 0 .114-.284v-3.406a.475.475 0 0 0-.128-.327.452.452 0 0 0-.32-.135.461.461 0 0 0-.284.1 2.034 2.034 0 0 1-1.429.455 2.056 2.056 0 0 1-1.358-.64 2.024 2.024 0 0 1-.548-1.394 2.057 2.057 0 0 1 .548-1.394 2.052 2.052 0 0 1 2.788-.185.447.447 0 0 0 .284.1.458.458 0 0 0 .455-.455V113.6a.423.423 0 0 0-.114-.284.381.381 0 0 0-.284-.114h-3.364a.458.458 0 0 0-.363.74 2.006 2.006 0 0 1 .462 1.28 2.027 2.027 0 0 1-.853 1.671 2.045 2.045 0 0 1-2.788-2.937.445.445 0 0 0 .114-.3z" transform="translate(-23.209 941.8)" style="fill:#fff"/>
        <path data-name="Path 13" d="M192.629 236.175a2.04 2.04 0 0 1 1.28.455.47.47 0 0 0 .612-.028.469.469 0 0 0 .135-.327v-3.8h-3.79a1.275 1.275 0 0 1-1.273-1.28 1.342 1.342 0 0 1 .284-.8 1.193 1.193 0 0 0 .235-1.052 1.229 1.229 0 0 0-1.742-.811 1.219 1.219 0 0 0-.391 1.87 1.255 1.255 0 0 1 .284.8 1.275 1.275 0 0 1-1.273 1.259h-3.39a.4.4 0 0 0-.4.4v3.385a.482.482 0 0 0 .135.327.452.452 0 0 0 .32.135.486.486 0 0 0 .284-.092 1.96 1.96 0 0 1 1.28-.455 2.043 2.043 0 1 1 0 4.082 1.992 1.992 0 0 1-1.28-.462.458.458 0 0 0-.74.363v3.392a.423.423 0 0 0 .114.284.392.392 0 0 0 .284.114h3.392a.454.454 0 0 0 .455-.455.441.441 0 0 0-.092-.284 2.006 2.006 0 0 1-.462-1.28 2.039 2.039 0 1 1 3.627 1.266.51.51 0 0 0-.107.3.454.454 0 0 0 .455.455h3.4a.389.389 0 0 0 .4-.4v-3.392a.455.455 0 0 0-.74-.356 2.025 2.025 0 0 1-1.842.384 2.042 2.042 0 0 1 .548-4.011z" transform="translate(136.932 834.782)" style="fill:#fff"/>
        <path data-name="Path 14" d="M316.025 290.1a1.186 1.186 0 0 0-.761.27 1.255 1.255 0 0 1-.8.284 1.293 1.293 0 0 1-.9-.37 1.258 1.258 0 0 1-.377-.9v-3.392a.389.389 0 0 0-.4-.4H309.4a.446.446 0 0 0-.32.128.452.452 0 0 0-.135.32.447.447 0 0 0 .1.284 2.029 2.029 0 0 1-.3 2.88 2.082 2.082 0 0 1-1.287.448 1.923 1.923 0 0 1-.448-.05 2.039 2.039 0 0 1-1.138-3.264.447.447 0 0 0 .092-.427.5.5 0 0 0-.491-.32h-3.74v3.783a1.293 1.293 0 0 1-.37.9 1.274 1.274 0 0 1-1.7.085 1.255 1.255 0 0 0-2.062.946 1.228 1.228 0 0 0 1.294 1.223 1.173 1.173 0 0 0 .768-.277 1.264 1.264 0 0 1 1.7.092 1.28 1.28 0 0 1 .37.91v3.392a.423.423 0 0 0 .114.284.392.392 0 0 0 .284.114h3.392a.458.458 0 0 0 .455-.455.447.447 0 0 0-.1-.284 2.012 2.012 0 0 1-.448-1.5 2.047 2.047 0 0 1 2.5-1.778 2.05 2.05 0 0 1 1.138 3.264.419.419 0 0 0-.121.3.461.461 0 0 0 .462.462h3.391a.423.423 0 0 0 .284-.114.392.392 0 0 0 .114-.284v-3.392a1.27 1.27 0 0 1 .341-.868 1.308 1.308 0 0 1 .846-.405 1.291 1.291 0 0 1 .889.277 1.306 1.306 0 0 0 1.678-.057 1.221 1.221 0 0 0 0-1.778 1.3 1.3 0 0 0-.924-.334z" transform="translate(30.667 781.673)" style="fill:#fff"/>
    </g>
</svg>
