<svg xmlns="http://www.w3.org/2000/svg" width="48" height="48" viewBox="0 0 48 48">
    <g data-name="Group 187" transform="translate(-308 -1043)">
        <rect data-name="Rectangle 61" width="48" height="48" rx="3" transform="translate(308 1043)" style="opacity:.15;fill:#fff"/>
        <path data-name="Path 8" d="M406.4 0h.45v37.994h-.45z" transform="translate(-69.865 1048)" style="fill:#fff"/>
        <path data-name="Path 9" d="M294.507 73.154a3.454 3.454 0 1 1-3.453-3.454 3.454 3.454 0 0 1 3.453 3.454" transform="translate(39.4 983.885)" style="fill:#fff"/>
        <path data-name="Path 10" d="m299.41 127.9-7.444 4.367s-3.333 1.763-1.154 5.4c1.979 3.285 5.264 8.926 5.264 8.926s.561 1.226 2 .377a1.284 1.284 0 0 0 .385-1.8l-4.6-9.119 5.553 9.5z" transform="translate(37.125 930.348)" style="fill:#fff"/>
    </g>
</svg>
